#N canvas 163 189 764 457 10;
#X obj 215 59 bonk~;
#X obj 180 119 spigot;
#X obj 98 119 spigot;
#X obj 147 120 tgl 15 0 empty empty empty 0 -6 0 8 -262144 -1 -1 0
1;
#X obj 229 120 tgl 15 0 empty empty empty 0 -6 0 8 -262144 -1 -1 0
1;
#X obj 180 149 print cooked;
#X obj 98 149 print raw;
#X msg 215 -110 mask 4 0.7;
#X msg 215 -75 attack-frames 1;
#X msg 215 -47 minvel 7;
#X msg 215 -20 spew 0;
#X msg 215 7 useloudness 0;
#X msg 215 31 debug 0;
#X floatatom 289 124 5 0 0 0 - - -;
#X floatatom 330 171 5 0 0 0 - - -;
#X obj 312 83 unpack f f f;
#X floatatom 378 123 5 0 0 0 - - -;
#X text 377 170 create a new beat with this velocity;
#X obj 131 26 inlet~;
#X obj 327 212 outlet;
#X msg 215 -132 thresh 4 12;
#X connect 0 0 2 0;
#X connect 0 1 1 0;
#X connect 0 1 15 0;
#X connect 1 0 5 0;
#X connect 2 0 6 0;
#X connect 3 0 2 1;
#X connect 4 0 1 1;
#X connect 7 0 0 0;
#X connect 8 0 0 0;
#X connect 9 0 0 0;
#X connect 10 0 0 0;
#X connect 11 0 0 0;
#X connect 12 0 0 0;
#X connect 14 0 19 0;
#X connect 15 0 13 0;
#X connect 15 1 14 0;
#X connect 15 2 16 0;
#X connect 18 0 0 0;
#X connect 20 0 0 0;
