#N canvas 151 177 764 457 10;
#X obj 215 59 bonk~;
#X obj 101 76 spigot;
#X obj 19 76 spigot;
#X obj 68 77 tgl 15 0 empty empty empty 0 -6 0 8 -262144 -1 -1 0 1
;
#X obj 150 77 tgl 15 0 empty empty empty 0 -6 0 8 -262144 -1 -1 0 1
;
#X obj 101 106 print cooked;
#X obj 19 106 print raw;
#X msg 215 -122 mask 4 0.7;
#X msg 215 -87 attack-frames 1;
#X msg 215 -32 spew 0;
#X msg 215 -5 useloudness 0;
#X msg 215 19 debug 0;
#X floatatom 204 108 5 0 0 0 - - -;
#X floatatom 276 127 5 0 0 0 - - -;
#X obj 242 91 unpack f f f;
#X floatatom 332 108 5 0 0 0 - - -;
#X obj 122 43 inlet~;
#X obj 276 159 outlet;
#X msg 215 -59 minvel 20;
#X obj 215 -173 loadbang;
#X msg 215 -144 thresh 3 9;
#X text 239 181 output is beat velocity;
#X text 68 24 input is audio stream;
#X connect 0 0 2 0;
#X connect 0 1 1 0;
#X connect 0 1 14 0;
#X connect 1 0 5 0;
#X connect 2 0 6 0;
#X connect 3 0 2 1;
#X connect 4 0 1 1;
#X connect 7 0 0 0;
#X connect 8 0 0 0;
#X connect 9 0 0 0;
#X connect 10 0 0 0;
#X connect 11 0 0 0;
#X connect 13 0 17 0;
#X connect 14 0 12 0;
#X connect 14 1 13 0;
#X connect 14 2 15 0;
#X connect 16 0 0 0;
#X connect 18 0 0 0;
#X connect 19 0 20 0;
#X connect 19 0 7 0;
#X connect 19 0 8 0;
#X connect 19 0 18 0;
#X connect 19 0 9 0;
#X connect 19 0 10 0;
#X connect 19 0 11 0;
#X connect 20 0 0 0;
