#N canvas 485 100 880 517 10;
#X obj 87 33 inlet;
#X obj 30 464 outlet;
#X obj 252 276 random 256;
#X floatatom 87 58 5 0 0 0 - - -;
#X floatatom 252 308 5 0 0 0 - - -;
#X floatatom 124 234 5 0 0 0 - - -;
#X floatatom -82 184 5 0 0 0 - - -;
#X msg 124 202 255;
#X obj -82 155 min 255;
#X floatatom -102 257 5 0 0 0 - - -;
#X obj -55 262 int;
#X obj -55 287 change;
#X text 243 88 hue;
#X text 52 168 saturation;
#X text -191 203 decay over time;
#X obj -55 240 line 0 100;
#X msg -138 223 0 1200;
#X obj 233 219 random 256;
#X floatatom 233 246 5 0 0 0 - - -;
#X obj 272 347 random 256;
#X floatatom 272 374 5 0 0 0 - - -;
#X floatatom -55 316 5 0 0 0 - - -;
#X obj -82 130 * 3;
#X obj -82 206 t b f;
#X obj 30 390 pack f f f f f f f f f;
#X text -133 427 reorder to (hsv \, hsv \, hsv);
#X text -68 391 (vsh \, vsh \, vsh);
#X msg 30 430 \$3 \$2 \$1 \$6 \$5 \$4 \$9 \$8 \$7;
#X obj -55 348 t f f f;
#X text 50 11 input is beat velocity;
#X obj -82 107 t f;
#X text -88 86 value;
#X obj 124 170 t b;
#X text -9 485 output is (hsv \, hsv \, hsv);
#X obj 204 182 %;
#X obj 233 146 int;
#X obj 87 90 trigger f b f;
#X obj 233 107 t f f f;
#X obj 202 157 -;
#X msg 201 132 255;
#X connect 0 0 3 0;
#X connect 2 0 4 0;
#X connect 3 0 36 0;
#X connect 4 0 24 5;
#X connect 5 0 24 1;
#X connect 5 0 24 4;
#X connect 5 0 24 7;
#X connect 6 0 23 0;
#X connect 7 0 5 0;
#X connect 8 0 6 0;
#X connect 10 0 11 0;
#X connect 11 0 21 0;
#X connect 15 0 9 0;
#X connect 15 0 10 0;
#X connect 16 0 15 0;
#X connect 17 0 18 0;
#X connect 18 0 24 2;
#X connect 19 0 20 0;
#X connect 20 0 24 8;
#X connect 21 0 28 0;
#X connect 22 0 8 0;
#X connect 23 0 16 0;
#X connect 23 1 15 0;
#X connect 24 0 27 0;
#X connect 27 0 1 0;
#X connect 28 0 24 0;
#X connect 28 1 24 3;
#X connect 28 2 24 6;
#X connect 30 0 22 0;
#X connect 32 0 7 0;
#X connect 36 0 30 0;
#X connect 36 1 32 0;
#X connect 36 2 37 0;
#X connect 37 0 35 0;
