#N canvas 479 100 880 517 10;
#X obj 87 33 inlet;
#X obj 30 464 outlet;
#X floatatom 87 58 5 0 0 0 - - -;
#X floatatom 361 351 5 0 0 0 - - -;
#X floatatom 124 234 5 0 0 0 - - -;
#X floatatom -82 184 5 0 0 0 - - -;
#X msg 124 202 255;
#X obj -82 155 min 255;
#X floatatom -102 257 5 0 0 0 - - -;
#X obj -55 262 int;
#X obj -55 287 change;
#X text 243 88 hue;
#X text 52 168 saturation;
#X text -191 203 decay over time;
#X obj -55 240 line 0 100;
#X msg -138 223 0 1200;
#X floatatom 233 353 5 0 0 0 - - -;
#X floatatom -55 316 5 0 0 0 - - -;
#X obj -82 130 * 3;
#X obj -82 206 t b f;
#X obj 30 390 pack f f f f f f f f f;
#X text -133 427 reorder to (hsv \, hsv \, hsv);
#X text -68 391 (vsh \, vsh \, vsh);
#X msg 30 430 \$3 \$2 \$1 \$6 \$5 \$4 \$9 \$8 \$7;
#X obj -55 348 t f f f;
#X text 50 11 input is beat velocity;
#X obj -82 107 t f;
#X text -88 86 value;
#X obj 124 170 t b;
#X text -9 485 output is (hsv \, hsv \, hsv);
#X obj 233 130 int;
#X obj 87 90 trigger f b f;
#X obj 233 107 t f f f;
#X obj 233 193 -;
#X obj 293 263 random 2;
#X obj 233 280 mux 0 1;
#X obj 233 219 max 0;
#X obj 267 193 +;
#X obj 267 219 min 255;
#X obj 361 113 int;
#X obj 361 176 -;
#X obj 421 246 random 2;
#X obj 361 263 mux 0 1;
#X obj 361 202 max 0;
#X obj 395 176 +;
#X obj 395 202 min 255;
#X floatatom 494 352 5 0 0 0 - - -;
#X obj 494 112 int;
#X obj 494 175 -;
#X obj 554 245 random 2;
#X obj 494 262 mux 0 1;
#X obj 494 201 max 0;
#X obj 528 175 +;
#X obj 528 201 min 255;
#X obj 233 153 t b f b f b;
#X obj 361 134 t b f b f b;
#X msg 233 173 128;
#X msg 267 173 128;
#X msg 361 156 128;
#X msg 395 156 128;
#X msg 494 155 128;
#X msg 528 155 128;
#X obj 494 134 t b f b f b;
#X obj 300 62 - 50;
#X obj 300 83 max 0;
#X obj 300 39 * 1.8;
#X connect 0 0 2 0;
#X connect 2 0 31 0;
#X connect 3 0 20 5;
#X connect 4 0 20 1;
#X connect 4 0 20 4;
#X connect 4 0 20 7;
#X connect 5 0 19 0;
#X connect 6 0 4 0;
#X connect 7 0 5 0;
#X connect 9 0 10 0;
#X connect 10 0 17 0;
#X connect 14 0 8 0;
#X connect 14 0 9 0;
#X connect 15 0 14 0;
#X connect 16 0 20 2;
#X connect 17 0 24 0;
#X connect 18 0 7 0;
#X connect 19 0 15 0;
#X connect 19 1 14 0;
#X connect 20 0 23 0;
#X connect 23 0 1 0;
#X connect 24 0 20 0;
#X connect 24 1 20 3;
#X connect 24 2 20 6;
#X connect 26 0 18 0;
#X connect 28 0 6 0;
#X connect 30 0 54 0;
#X connect 31 0 26 0;
#X connect 31 1 28 0;
#X connect 31 2 65 0;
#X connect 32 0 30 0;
#X connect 32 1 39 0;
#X connect 32 2 47 0;
#X connect 33 0 36 0;
#X connect 34 0 35 2;
#X connect 35 0 16 0;
#X connect 36 0 35 0;
#X connect 37 0 38 0;
#X connect 38 0 35 1;
#X connect 39 0 55 0;
#X connect 40 0 43 0;
#X connect 41 0 42 2;
#X connect 42 0 3 0;
#X connect 43 0 42 0;
#X connect 44 0 45 0;
#X connect 45 0 42 1;
#X connect 46 0 20 8;
#X connect 47 0 62 0;
#X connect 48 0 51 0;
#X connect 49 0 50 2;
#X connect 50 0 46 0;
#X connect 51 0 50 0;
#X connect 52 0 53 0;
#X connect 53 0 50 1;
#X connect 54 0 56 0;
#X connect 54 1 33 1;
#X connect 54 2 57 0;
#X connect 54 3 37 1;
#X connect 54 4 34 0;
#X connect 55 0 58 0;
#X connect 55 1 40 1;
#X connect 55 2 59 0;
#X connect 55 3 44 1;
#X connect 55 4 41 0;
#X connect 56 0 33 0;
#X connect 57 0 37 0;
#X connect 58 0 40 0;
#X connect 59 0 44 0;
#X connect 60 0 48 0;
#X connect 61 0 52 0;
#X connect 62 0 60 0;
#X connect 62 1 48 1;
#X connect 62 2 61 0;
#X connect 62 3 52 1;
#X connect 62 4 49 0;
#X connect 63 0 64 0;
#X connect 64 0 32 0;
#X connect 65 0 63 0;
