#N canvas 163 189 764 457 10;
#X declare -lib mrpeach;
#X declare -lib mrpeach;
#X obj 153 27 input;
#X obj 154 122 getbeat;
#X obj 154 254 output;
#X obj 61 194 manualEffect;
#X obj 154 195 stripeEffect;
#X connect 0 0 1 0;
#X connect 1 0 4 0;
#X connect 3 0 2 0;
#X connect 4 0 2 0;
