#N canvas 519 197 764 457 10;
#X declare -lib mrpeach;
#X declare -lib mrpeach;
#X obj 153 27 input;
#X obj 154 77 getbeat;
#X obj 154 334 output;
#X obj 54 317 manualEffect;
#X obj 154 267 stripeEffect;
#X obj 493 234 vradio 15 1 0 4 empty empty select 20 7 0 8 -262144
-1 -1 3;
#X obj 171 243 singleEffect;
#X text 271 53 num leds;
#X obj 239 27 loadbang;
#X obj 188 215 rangeEffect;
#X obj 154 152 randomColor;
#X obj 493 124 vradio 15 1 0 4 empty empty select 20 7 0 8 -262144
-1 -1 0;
#X obj 154 184 mux 1 2 3;
#X text 86 57 get beat;
#X text 69 183 choose color;
#X text 63 292 choose pattern;
#X obj 171 127 hotcoolColor;
#X obj 154 101 t f f;
#X msg 239 54 480;
#X obj 273 205 rainbowEffect;
#X obj 154 294 mux 1 2 3 4;
#X connect 0 0 1 0;
#X connect 1 0 17 0;
#X connect 3 0 2 0;
#X connect 4 0 20 0;
#X connect 5 0 20 4;
#X connect 6 0 20 1;
#X connect 8 0 18 0;
#X connect 9 0 20 2;
#X connect 10 0 12 0;
#X connect 11 0 12 3;
#X connect 12 0 6 0;
#X connect 12 0 4 0;
#X connect 12 0 9 0;
#X connect 16 0 12 1;
#X connect 17 0 16 0;
#X connect 17 0 10 0;
#X connect 17 1 9 1;
#X connect 17 1 6 1;
#X connect 17 1 19 0;
#X connect 18 0 6 2;
#X connect 18 0 9 2;
#X connect 19 0 20 3;
#X connect 20 0 2 0;
