#N canvas 356 262 693 413 10;
#X declare -lib mrpeach;
#X declare -lib mrpeach;
#X obj 234 148 packOSC;
#X obj 259 205 o.io.slipserial;
#X obj 266 250 unpackOSC;
#X obj 389 139 import mrpeach;
#X obj 293 297 print;
#X obj 207 85 trigger b a b;
#X msg 206 114 ];
#X msg 262 114 [;
#X obj 159 270 print;
#X obj 170 213 unpackOSC;
#X msg 75 20 /leds/hsv 100 1 1;
#X msg 185 -16 /leds/strip/1/;
#X msg 335 57 /leds/strip/1/all/rgb 20 255 100;
#X msg 48 62 /leds/strip/0/all/red;
#X msg 48 86 /leds/strip/0/all/green;
#X msg 49 115 /leds/strip/1/all/blue;
#X msg 332 30 /leds/strip/0/all/rgb 255 0 0 0 255 0 0 0 255;
#X msg 212 26 /leds/strip/1/all/rainbow;
#X connect 0 0 1 0;
#X connect 1 0 2 0;
#X connect 2 0 4 0;
#X connect 5 0 6 0;
#X connect 5 1 0 0;
#X connect 5 2 7 0;
#X connect 6 0 0 0;
#X connect 7 0 0 0;
#X connect 9 0 8 0;
#X connect 10 0 5 0;
#X connect 11 0 5 0;
#X connect 12 0 5 0;
#X connect 13 0 5 0;
#X connect 14 0 5 0;
#X connect 15 0 5 0;
#X connect 16 0 5 0;
#X connect 17 0 5 0;
