#N canvas 377 179 1004 426 10;
#X declare -lib mrpeach;
#X declare -lib mrpeach;
#X obj 234 148 packOSC;
#X obj 259 205 o.io.slipserial;
#X obj 266 250 unpackOSC;
#X obj 389 139 import mrpeach;
#X obj 293 297 print;
#X msg 212 26 /leds/rainbow;
#X obj 207 85 trigger b a b;
#X msg 206 114 ];
#X msg 262 114 [;
#X obj 159 270 print;
#X obj 170 213 unpackOSC;
#X msg 332 30 /leds/rgb 100 100 100;
#X msg 75 20 /leds/hsv 100 1 1;
#X msg 48 62 /leds/red;
#X msg 48 86 /leds/green;
#X msg 49 115 /leds/blue;
#X connect 0 0 1 0;
#X connect 0 0 10 0;
#X connect 1 0 2 0;
#X connect 2 0 4 0;
#X connect 5 0 6 0;
#X connect 6 0 7 0;
#X connect 6 1 0 0;
#X connect 6 2 8 0;
#X connect 7 0 0 0;
#X connect 8 0 0 0;
#X connect 10 0 9 0;
#X connect 11 0 6 0;
#X connect 12 0 6 0;
#X connect 13 0 6 0;
#X connect 14 0 6 0;
#X connect 15 0 6 0;
