#N canvas 165 191 764 457 10;
#X declare -lib mrpeach;
#X declare -lib mrpeach;
#X obj 153 27 input;
#X obj 154 122 getbeat;
#X obj 155 255 output;
#X obj 154 193 setbeat;
#X connect 0 0 1 0;
#X connect 1 0 3 0;
#X connect 3 0 2 0;
