#N canvas 369 243 450 300 10;
#X obj 196 4 trigger b a b;
#X msg 195 33 ];
#X msg 251 33 [;
#X msg 169 -123 /leds/strip/1/;
#X msg 326 -4 /leds/strip/1/all/rgb 20 255 100;
#X msg 37 -19 /leds/strip/0/all/red;
#X msg 37 5 /leds/strip/0/all/green;
#X msg 38 34 /leds/strip/1/all/blue;
#X msg 384 -49 /leds/strip/0/all/rgb 255 0 0 0 255 0 0 0 255;
#X obj 287 -137 until;
#X obj 327 -112 + 1;
#X msg 287 -84 /leds/strip/1/all/rainbow \$1;
#X obj 288 -112 int;
#X msg 287 -162 255;
#X msg 65 -62 /leds/strip/0/all/hsv 0 255 255;
#X msg -63 -151 /leds/strip/1/all/hsv 0 255 255 90 255 255 180 255
255;
#X obj 233 81 outlet;
#X connect 0 0 1 0;
#X connect 0 1 16 0;
#X connect 0 2 2 0;
#X connect 1 0 16 0;
#X connect 2 0 16 0;
#X connect 3 0 0 0;
#X connect 4 0 0 0;
#X connect 5 0 0 0;
#X connect 6 0 0 0;
#X connect 7 0 0 0;
#X connect 8 0 0 0;
#X connect 9 0 12 0;
#X connect 10 0 12 1;
#X connect 11 0 0 0;
#X connect 12 0 10 0;
#X connect 12 0 11 0;
#X connect 13 0 9 0;
#X connect 14 0 0 0;
#X connect 15 0 0 0;
