#N canvas 352 239 789 505 10;
#X declare -lib mrpeach;
#X declare -lib mrpeach;
#X obj 234 148 packOSC;
#X obj 234 223 o.io.slipserial;
#X obj 234 281 unpackOSC;
#X obj 119 107 import mrpeach;
#X obj 124 165 unpackOSC;
#X obj 234 107 inlet;
#X obj 124 298 print;
#X text 212 81 input is osc bundle;
#X obj 368 306 counter;
#X text 346 144 start fail detect;
#X msg 380 264 0;
#X floatatom 368 341 5 0 0 0 - - -;
#X obj 426 455 print error;
#X msg 426 427 lost contact with arduino;
#X text 421 307 if counter reaches 1 \, signal failure and reset;
#X obj 368 165 metro 2000;
#X obj 368 366 moses 3;
#X obj 234 188 spigot;
#X obj 380 240 t b b b;
#X msg 419 263 1;
#X obj 267 174 tgl 15 0 empty empty empty 17 7 0 10 -262144 -1 -1 0
1;
#X obj 293 148 spigot;
#X obj 326 134 tgl 15 0 empty empty empty 17 7 0 10 -262144 -1 -1 0
1;
#X text 447 378 if lost contact \, reset serial and halt;
#X text 427 238 if response \, reset fail detect;
#X obj 407 399 t b b b b b b;
#X msg 502 399 0;
#X connect 0 0 4 0;
#X connect 0 0 17 0;
#X connect 0 0 21 0;
#X connect 1 0 2 0;
#X connect 1 0 18 0;
#X connect 2 0 6 0;
#X connect 4 0 6 0;
#X connect 5 0 0 0;
#X connect 8 0 11 0;
#X connect 10 0 15 0;
#X connect 11 0 16 0;
#X connect 13 0 12 0;
#X connect 15 0 8 0;
#X connect 16 1 25 0;
#X connect 17 0 1 0;
#X connect 18 0 10 0;
#X connect 18 1 8 3;
#X connect 18 2 19 0;
#X connect 19 0 20 0;
#X connect 19 0 22 0;
#X connect 20 0 17 1;
#X connect 20 0 6 0;
#X connect 21 0 15 0;
#X connect 22 0 21 1;
#X connect 25 0 1 2;
#X connect 25 1 13 0;
#X connect 25 3 8 3;
#X connect 25 4 10 0;
#X connect 25 5 26 0;
#X connect 26 0 20 0;
#X connect 26 0 22 0;
