#N canvas 505 224 693 464 10;
#X declare -lib mrpeach;
#X declare -lib mrpeach;
#X obj 234 148 packOSC;
#X obj 234 189 o.io.slipserial;
#X obj 234 247 unpackOSC;
#X obj 345 188 import mrpeach;
#X obj 196 4 trigger b a b;
#X msg 195 33 ];
#X msg 251 33 [;
#X obj 109 165 unpackOSC;
#X msg 169 -123 /leds/strip/1/;
#X msg 326 -4 /leds/strip/1/all/rgb 20 255 100;
#X msg 37 -19 /leds/strip/0/all/red;
#X msg 37 5 /leds/strip/0/all/green;
#X msg 38 34 /leds/strip/1/all/blue;
#X msg 384 -49 /leds/strip/0/all/rgb 255 0 0 0 255 0 0 0 255;
#X obj 287 -137 until;
#X obj 327 -112 + 1;
#X msg 287 -84 /leds/strip/1/all/rainbow \$1;
#X obj 288 -112 int;
#X msg 287 -162 255;
#X obj 162 131 inlet;
#X msg 65 -62 /leds/strip/0/all/hsv 0 255 255;
#X msg -63 -151 /leds/strip/1/all/hsv 0 255 255 90 255 255 180 255
255;
#X symbolatom 234 335 10 0 0 0 - - -;
#X obj 234 275 list2symbol;
#X obj 345 301 select /leds;
#X obj 414 333 print arduino error!;
#X msg 481 165 reset;
#X obj 234 301 symbol;
#X obj 480 188 list2symbol;
#X obj 109 264 print;
#X connect 0 0 1 0;
#X connect 0 0 7 0;
#X connect 0 0 26 0;
#X connect 1 0 2 0;
#X connect 2 0 23 0;
#X connect 4 0 5 0;
#X connect 4 1 0 0;
#X connect 4 2 6 0;
#X connect 5 0 0 0;
#X connect 6 0 0 0;
#X connect 8 0 4 0;
#X connect 9 0 4 0;
#X connect 10 0 4 0;
#X connect 11 0 4 0;
#X connect 12 0 4 0;
#X connect 13 0 4 0;
#X connect 14 0 17 0;
#X connect 15 0 17 1;
#X connect 16 0 4 0;
#X connect 17 0 15 0;
#X connect 17 0 16 0;
#X connect 18 0 14 0;
#X connect 19 0 0 0;
#X connect 20 0 4 0;
#X connect 21 0 4 0;
#X connect 23 0 27 0;
#X connect 24 1 25 0;
#X connect 26 0 28 0;
#X connect 27 0 22 0;
#X connect 27 0 24 0;
#X connect 28 0 27 1;
