#N canvas 501 220 693 464 10;
#X declare -lib mrpeach;
#X declare -lib mrpeach;
#X obj 234 148 packOSC;
#X obj 234 189 o.io.slipserial;
#X obj 234 247 unpackOSC;
#X obj 119 107 import mrpeach;
#X obj 124 165 unpackOSC;
#X obj 234 107 inlet;
#X symbolatom 235 309 10 0 0 0 - - -;
#X obj 234 275 list2symbol;
#X obj 329 322 select /leds;
#X obj 398 354 print arduino error!;
#X msg 362 165 reset;
#X obj 329 292 symbol;
#X obj 362 188 list2symbol;
#X obj 124 264 print;
#X text 212 81 input is osc bundle;
#X connect 0 0 1 0;
#X connect 0 0 4 0;
#X connect 0 0 10 0;
#X connect 1 0 2 0;
#X connect 2 0 7 0;
#X connect 5 0 0 0;
#X connect 7 0 11 0;
#X connect 8 1 9 0;
#X connect 10 0 12 0;
#X connect 11 0 6 0;
#X connect 11 0 8 0;
#X connect 12 0 11 1;
