#N canvas 589 271 693 464 10;
#X declare -lib mrpeach;
#X declare -lib mrpeach;
#X obj 234 148 packOSC;
#X obj 234 189 o.io.slipserial;
#X obj 234 247 unpackOSC;
#X obj 119 107 import mrpeach;
#X obj 124 165 unpackOSC;
#X obj 234 107 inlet;
#X obj 124 264 print;
#X text 212 81 input is osc bundle;
#X obj 368 272 counter;
#X text 427 205 if response \, reset fail detect;
#X text 346 144 start fail detect;
#X obj 380 206 t b b;
#X msg 380 230 0;
#X floatatom 368 307 5 0 0 0 - - -;
#X obj 426 421 print error;
#X msg 426 393 lost contact with arduino;
#X obj 407 365 t b b b;
#X text 421 273 if counter reaches 1 \, signal failure and reset;
#X obj 368 165 metro 2000;
#X obj 368 332 moses 2;
#X connect 0 0 1 0;
#X connect 0 0 4 0;
#X connect 0 0 18 0;
#X connect 1 0 2 0;
#X connect 1 0 11 0;
#X connect 5 0 0 0;
#X connect 8 0 13 0;
#X connect 11 0 12 0;
#X connect 11 1 8 2;
#X connect 12 0 18 0;
#X connect 13 0 19 0;
#X connect 15 0 14 0;
#X connect 16 0 1 2;
#X connect 16 1 15 0;
#X connect 16 2 11 0;
#X connect 18 0 8 0;
#X connect 19 1 16 0;
