#N canvas 230 126 880 517 10;
#X obj -63 -1539 inlet;
#X text -101 -1564 input is (hsv \, hsv \, hsv);
#X obj -67 -1385 outlet;
#X msg -146 -1478 ];
#X msg -109 -1474 [;
#X text -105 -1366 output is osc bundle;
#X obj 52 -1462 int;
#X msg 52 -1402 /leds/strip/0/all/rainbow \$1;
#X obj 71 -1546 loadbang;
#X msg 71 -1521 0;
#X obj -63 -1495 trigger b f b b;
#X obj 92 -1430 +;
#X obj 92 -1478 / 5;
#X obj 52 -1430 % 256;
#X obj 92 -1454 pow 1.3;
#X connect 0 0 10 0;
#X connect 3 0 2 0;
#X connect 4 0 2 0;
#X connect 6 0 11 0;
#X connect 6 0 13 0;
#X connect 7 0 2 0;
#X connect 8 0 9 0;
#X connect 9 0 6 1;
#X connect 10 0 3 0;
#X connect 10 1 12 0;
#X connect 10 2 6 0;
#X connect 10 3 4 0;
#X connect 11 0 6 1;
#X connect 12 0 14 0;
#X connect 13 0 7 0;
#X connect 14 0 11 1;
