#N canvas 224 120 926 594 10;
#X obj 26 572 outlet;
#X msg -53 479 ];
#X msg -18 479 [;
#X text -12 591 output is osc bundle;
#X obj 298 214 inlet;
#X text 265 187 input is num leds;
#X text 188 203 to;
#X obj 265 241 t b;
#X text 259 220 from;
#X msg 59 496 /leds/strip/0/from/\$10/to/\$11/hsv \$1 \$2 \$3 \$4 \$5
\$6;
#X obj 265 336 random;
#X obj 183 353 +;
#X obj 183 254 int;
#X msg 139 537 /leds/strip/0/all/rgb 0 0 0;
#X obj 30 463 trigger b l b b;
#X obj 30 392 pack f f f f f f f f f f f;
#X obj -43 356 unpack \$1 \$2 \$3 \$4 \$5 \$6 \$7 \$8 \$9;
#X obj -43 310 inlet;
#X text -127 392 (hsv \, hsv \, hsv) \, from \, to;
#X obj 183 161 inlet;
#X text 159 136 input is beat velocity;
#X text -65 287 input is (hsv \, hsv \, hsv);
#X obj 183 224 t f b;
#X obj 183 316 min;
#X obj 183 279 * 3;
#X connect 1 0 0 0;
#X connect 2 0 0 0;
#X connect 4 0 10 1;
#X connect 4 0 23 1;
#X connect 7 0 10 0;
#X connect 9 0 0 0;
#X connect 10 0 11 1;
#X connect 10 0 15 9;
#X connect 11 0 15 10;
#X connect 12 0 24 0;
#X connect 13 0 0 0;
#X connect 14 0 1 0;
#X connect 14 1 9 0;
#X connect 14 2 13 0;
#X connect 14 3 2 0;
#X connect 15 0 14 0;
#X connect 16 0 15 0;
#X connect 16 1 15 1;
#X connect 16 2 15 2;
#X connect 16 3 15 3;
#X connect 16 4 15 4;
#X connect 16 5 15 5;
#X connect 16 6 15 6;
#X connect 16 7 15 7;
#X connect 16 8 15 8;
#X connect 17 0 16 0;
#X connect 19 0 22 0;
#X connect 22 0 12 0;
#X connect 22 1 7 0;
#X connect 23 0 11 0;
#X connect 24 0 23 0;
