#N canvas 234 130 926 594 10;
#X obj 87 33 inlet;
#X obj 26 572 outlet;
#X obj 252 221 random 256;
#X floatatom 87 58 5 0 0 0 - - -;
#X floatatom 252 253 5 0 0 0 - - -;
#X floatatom 124 234 5 0 0 0 - - -;
#X floatatom -82 184 5 0 0 0 - - -;
#X msg 124 202 255;
#X msg -53 479 ];
#X msg -18 479 [;
#X obj -82 155 min 255;
#X floatatom -102 257 5 0 0 0 - - -;
#X obj -55 262 int;
#X obj -55 287 change;
#X text 243 88 hue;
#X text 52 168 saturation;
#X text -191 203 decay over time;
#X obj -55 240 line 0 100;
#X msg -138 223 0 1200;
#X obj 233 164 random 256;
#X floatatom 233 191 5 0 0 0 - - -;
#X obj 272 292 random 256;
#X floatatom 272 319 5 0 0 0 - - -;
#X floatatom -55 316 5 0 0 0 - - -;
#X obj -82 130 * 3;
#X obj -82 206 t b f;
#X obj -55 348 t f f f;
#X text 50 11 input is beat velocity;
#X obj -82 107 t f;
#X text -88 86 value;
#X obj 233 107 t b b b;
#X obj 124 170 t b;
#X text -12 591 output is osc bundle;
#X obj 488 28 inlet;
#X text 465 10 input is num leds;
#X text 378 86 to;
#X obj 455 107 t b;
#X text 455 90 from;
#X msg 30 430 \$3 \$2 \$1 \$6 \$5 \$4 \$9 \$8 \$7 \$10 \$11;
#X text -194 429 reorder to (hsv \, hsv \, hsv) \, from \, to;
#X text -126 392 (vsh \, vsh \, vsh) \, from \, to;
#X msg 59 496 /leds/strip/0/from/\$10/to/\$11/hsv \$1 \$2 \$3 \$4 \$5
\$6;
#X obj 87 90 trigger f b b f b;
#X obj 373 107 t f;
#X obj 455 192 random;
#X obj 373 209 +;
#X obj 373 162 int;
#X msg 139 537 /leds/strip/0/all/rgb 0 0 0;
#X obj 30 463 trigger b l b b;
#X obj 32 390 pack f f f f f f f f f f f;
#X connect 0 0 3 0;
#X connect 2 0 4 0;
#X connect 3 0 42 0;
#X connect 4 0 49 5;
#X connect 5 0 49 1;
#X connect 5 0 49 4;
#X connect 5 0 49 7;
#X connect 6 0 25 0;
#X connect 7 0 5 0;
#X connect 8 0 1 0;
#X connect 9 0 1 0;
#X connect 10 0 6 0;
#X connect 12 0 13 0;
#X connect 13 0 23 0;
#X connect 17 0 11 0;
#X connect 17 0 12 0;
#X connect 18 0 17 0;
#X connect 19 0 20 0;
#X connect 20 0 49 2;
#X connect 21 0 22 0;
#X connect 22 0 49 8;
#X connect 23 0 26 0;
#X connect 24 0 10 0;
#X connect 25 0 18 0;
#X connect 25 1 17 0;
#X connect 26 0 49 0;
#X connect 26 1 49 3;
#X connect 26 2 49 6;
#X connect 28 0 24 0;
#X connect 30 0 19 0;
#X connect 30 1 2 0;
#X connect 30 2 21 0;
#X connect 31 0 7 0;
#X connect 33 0 44 1;
#X connect 36 0 44 0;
#X connect 38 0 48 0;
#X connect 41 0 1 0;
#X connect 42 0 28 0;
#X connect 42 1 31 0;
#X connect 42 2 30 0;
#X connect 42 3 43 0;
#X connect 42 4 36 0;
#X connect 43 0 46 0;
#X connect 44 0 45 1;
#X connect 44 0 49 9;
#X connect 45 0 49 10;
#X connect 46 0 45 0;
#X connect 47 0 1 0;
#X connect 48 0 8 0;
#X connect 48 1 41 0;
#X connect 48 2 47 0;
#X connect 48 3 9 0;
#X connect 49 0 38 0;
