#N canvas 590 178 572 414 10;
#X obj 187 59 inlet;
#X obj 55 332 outlet;
#X obj 27 150 random 256;
#X floatatom 186 87 5 0 0 0 - - -;
#X floatatom 25 182 5 0 0 0 - - -;
#X floatatom 105 182 5 0 0 0 - - -;
#X floatatom 195 181 5 0 0 0 - - -;
#X obj 32 231 pack \$1 \$2 \$3;
#X obj 168 117 trigger b b b;
#X msg 106 150 255;
#X msg 193 147 255;
#X msg -45 286 /leds/strip/0/all/hsv \$1 \$2 \$3;
#X msg 161 286 /leds/strip/1/all/hsv \$1 \$2 \$3;
#X msg -88 288 ];
#X msg 358 287 [;
#X obj 65 258 trigger b a a b;
#X connect 0 0 3 0;
#X connect 2 0 4 0;
#X connect 3 0 8 0;
#X connect 4 0 7 0;
#X connect 5 0 7 1;
#X connect 6 0 7 2;
#X connect 7 0 15 0;
#X connect 8 0 2 0;
#X connect 8 1 9 0;
#X connect 8 2 10 0;
#X connect 9 0 5 0;
#X connect 10 0 6 0;
#X connect 11 0 1 0;
#X connect 12 0 1 0;
#X connect 13 0 1 0;
#X connect 14 0 1 0;
#X connect 15 0 13 0;
#X connect 15 1 11 0;
#X connect 15 2 12 0;
#X connect 15 3 14 0;
