#N canvas 578 166 572 414 10;
#X obj 87 33 inlet;
#X obj 28 442 outlet;
#X obj -24 137 random 256;
#X floatatom 87 58 5 0 0 0 - - -;
#X floatatom -26 169 5 0 0 0 - - -;
#X floatatom 123 209 5 0 0 0 - - -;
#X floatatom 237 149 5 0 0 0 - - -;
#X msg 124 177 255;
#X msg -72 396 /leds/strip/0/all/hsv \$1 \$2 \$3;
#X msg 126 395 /leds/strip/1/all/hsv \$1 \$2 \$3;
#X msg -115 398 ];
#X msg 331 397 [;
#X obj 87 90 trigger b b f;
#X obj 220 119 min 255;
#X obj 32 332 trigger b l l b;
#X floatatom 231 242 5 0 0 0 - - -;
#X obj 213 175 trigger f b;
#X obj 309 168 delay 10;
#X obj 32 275 bondo 3;
#X obj 32 304 pack f f f;
#X obj 191 232 int;
#X obj 152 258 change;
#X obj 219 209 line 0 20;
#X msg 309 192 0 1000;
#X text -25 114 hue;
#X text 81 153 saturation;
#X text 294 210 decay over time;
#X text 263 90 brightness;
#X obj 205 95 * 2;
#X connect 0 0 3 0;
#X connect 2 0 4 0;
#X connect 3 0 12 0;
#X connect 4 0 18 0;
#X connect 5 0 18 1;
#X connect 6 0 16 0;
#X connect 7 0 5 0;
#X connect 8 0 1 0;
#X connect 9 0 1 0;
#X connect 10 0 1 0;
#X connect 11 0 1 0;
#X connect 12 0 2 0;
#X connect 12 1 7 0;
#X connect 12 2 28 0;
#X connect 13 0 6 0;
#X connect 14 0 10 0;
#X connect 14 1 8 0;
#X connect 14 2 9 0;
#X connect 14 3 11 0;
#X connect 16 0 22 0;
#X connect 16 1 17 0;
#X connect 17 0 23 0;
#X connect 18 0 19 0;
#X connect 18 1 19 1;
#X connect 18 2 19 2;
#X connect 19 0 14 0;
#X connect 20 0 21 0;
#X connect 21 0 18 2;
#X connect 22 0 15 0;
#X connect 22 0 20 0;
#X connect 23 0 22 0;
#X connect 28 0 13 0;
