#N canvas 568 156 572 414 10;
#X obj 87 33 inlet;
#X obj 28 442 outlet;
#X obj -24 137 random 256;
#X floatatom 87 58 5 0 0 0 - - -;
#X floatatom -26 169 5 0 0 0 - - -;
#X floatatom 123 209 5 0 0 0 - - -;
#X floatatom 237 149 5 0 0 0 - - -;
#X msg 124 177 255;
#X msg -77 385 ];
#X msg 329 388 [;
#X obj 87 90 trigger b b f;
#X obj 220 119 min 255;
#X obj 32 332 trigger b l l b;
#X floatatom 338 231 5 0 0 0 - - -;
#X obj 320 164 trigger f b;
#X obj 298 221 int;
#X obj 259 247 change;
#X text -25 114 hue;
#X text 81 153 saturation;
#X text 311 141 decay over time;
#X text 263 90 brightness;
#X obj 326 198 line 0 100;
#X msg 416 180 0 1200;
#X obj 416 157 delay 1;
#X obj 32 304 pack f f f f f f f f f;
#X obj -109 160 random 256;
#X floatatom -111 192 5 0 0 0 - - -;
#X obj 11 195 random 256;
#X floatatom 23 222 5 0 0 0 - - -;
#X floatatom 187 234 5 0 0 0 - - -;
#X obj 188 206 int;
#X obj 205 95 * 3;
#X msg -33 370 sendtyped /leds/strip/0/all/hsv iiiiii \$1 \$2 \$3 \$4
\$5 \$6;
#X msg -33 397 sendtyped /leds/strip/1/all/hsv iiiiii \$1 \$2 \$3 \$4
\$5 \$6;
#X connect 0 0 3 0;
#X connect 2 0 4 0;
#X connect 3 0 10 0;
#X connect 4 0 24 3;
#X connect 5 0 24 1;
#X connect 5 0 24 4;
#X connect 5 0 24 7;
#X connect 6 0 14 0;
#X connect 6 0 30 0;
#X connect 7 0 5 0;
#X connect 8 0 1 0;
#X connect 9 0 1 0;
#X connect 10 0 2 0;
#X connect 10 0 27 0;
#X connect 10 0 25 0;
#X connect 10 1 7 0;
#X connect 10 2 31 0;
#X connect 11 0 6 0;
#X connect 12 0 8 0;
#X connect 12 1 32 0;
#X connect 12 2 33 0;
#X connect 12 3 9 0;
#X connect 14 0 21 0;
#X connect 14 1 23 0;
#X connect 15 0 16 0;
#X connect 21 0 13 0;
#X connect 21 0 15 0;
#X connect 22 0 21 0;
#X connect 23 0 22 0;
#X connect 24 0 12 0;
#X connect 25 0 26 0;
#X connect 26 0 24 0;
#X connect 27 0 28 0;
#X connect 28 0 24 6;
#X connect 29 0 24 2;
#X connect 29 0 24 5;
#X connect 29 0 24 8;
#X connect 30 0 29 0;
#X connect 31 0 11 0;
#X connect 32 0 1 0;
#X connect 33 0 1 0;
