#N canvas 598 186 572 414 10;
#X obj 187 59 inlet;
#X obj 55 332 outlet;
#X msg 48 274 /leds/strip/0/all/rgb \$1 \$2 \$3;
#X obj 27 150 random 256;
#X obj 111 150 random 256;
#X obj 195 150 random 256;
#X floatatom 186 87 5 0 0 0 - - -;
#X floatatom 25 182 5 0 0 0 - - -;
#X floatatom 105 182 5 0 0 0 - - -;
#X floatatom 195 181 5 0 0 0 - - -;
#X obj 32 231 pack \$1 \$2 \$3;
#X obj 168 117 trigger b b b;
#X connect 0 0 6 0;
#X connect 2 0 1 0;
#X connect 3 0 7 0;
#X connect 4 0 8 0;
#X connect 5 0 9 0;
#X connect 6 0 11 0;
#X connect 7 0 10 0;
#X connect 8 0 10 1;
#X connect 9 0 10 2;
#X connect 10 0 2 0;
#X connect 11 0 3 0;
#X connect 11 1 4 0;
#X connect 11 2 5 0;
