#N canvas 240 136 880 517 10;
#X obj 87 33 inlet;
#X obj 26 572 outlet;
#X floatatom 87 58 5 0 0 0 - - -;
#X floatatom 124 234 5 0 0 0 - - -;
#X floatatom -82 184 5 0 0 0 - - -;
#X msg 124 202 255;
#X msg -53 479 ];
#X msg -16 483 [;
#X obj -82 155 min 255;
#X floatatom -102 257 5 0 0 0 - - -;
#X obj -55 262 int;
#X obj -55 287 change;
#X text 243 88 hue;
#X text 52 168 saturation;
#X text -191 203 decay over time;
#X obj -55 240 line 0 100;
#X msg -138 223 0 1200;
#X obj 233 164 random 256;
#X floatatom 233 191 5 0 0 0 - - -;
#X floatatom -55 316 5 0 0 0 - - -;
#X obj -82 130 * 3;
#X obj -82 206 t b f;
#X obj -55 348 t f f f;
#X text 50 11 input is beat velocity;
#X obj -82 107 t f;
#X text -88 86 value;
#X obj 233 107 t b b b;
#X obj 124 170 t b;
#X text -12 591 output is osc bundle;
#X text -78 430 reorder to (hsv);
#X text -10 389 (vsh);
#X msg 30 430 \$3 \$2 \$1 \$4;
#X obj 30 388 pack f f f i;
#X msg 59 496 /leds/strip/0/one/\$4/hsv \$1 \$2 \$3;
#X obj 365 107 t b;
#X obj 87 90 trigger f b b b;
#X text 359 86 index;
#X floatatom 410 69 5 0 0 0 - - -;
#X text 385 19 input is num leds;
#X obj 410 40 inlet;
#X obj 365 204 random;
#X obj 30 462 trigger b l l b b;
#X msg 129 527 /leds/strip/0/all/rgb 0 0 0;
#X connect 0 0 2 0;
#X connect 2 0 35 0;
#X connect 3 0 32 1;
#X connect 4 0 21 0;
#X connect 5 0 3 0;
#X connect 6 0 1 0;
#X connect 7 0 1 0;
#X connect 8 0 4 0;
#X connect 10 0 11 0;
#X connect 11 0 19 0;
#X connect 15 0 9 0;
#X connect 15 0 10 0;
#X connect 16 0 15 0;
#X connect 17 0 18 0;
#X connect 18 0 32 2;
#X connect 19 0 22 0;
#X connect 20 0 8 0;
#X connect 21 0 16 0;
#X connect 21 1 15 0;
#X connect 22 0 32 0;
#X connect 24 0 20 0;
#X connect 26 0 17 0;
#X connect 27 0 5 0;
#X connect 31 0 41 0;
#X connect 32 0 31 0;
#X connect 33 0 1 0;
#X connect 34 0 40 0;
#X connect 35 0 24 0;
#X connect 35 1 27 0;
#X connect 35 2 26 0;
#X connect 35 3 34 0;
#X connect 37 0 40 1;
#X connect 39 0 37 0;
#X connect 40 0 32 3;
#X connect 41 0 6 0;
#X connect 41 1 33 0;
#X connect 41 3 42 0;
#X connect 41 4 7 0;
#X connect 42 0 1 0;
