#N canvas 234 130 880 517 10;
#X obj 87 5 inlet;
#X obj 83 261 outlet;
#X msg 4 168 ];
#X msg 41 172 [;
#X text 45 280 output is osc bundle;
#X msg 116 185 /leds/strip/0/one/\$4/hsv \$1 \$2 \$3;
#X text 275 -32 input is num leds;
#X msg 186 216 /leds/strip/0/all/rgb 0 0 0;
#X floatatom 300 18 5 0 0 0 - - -;
#X obj 300 -11 inlet;
#X obj 87 151 trigger b l l b b;
#X obj 87 121 pack f f f f;
#X obj 87 69 unpack \$1 \$2 \$3;
#X text 19 122 (hsv) \, px;
#X obj 267 50 random;
#X text 52 -16 input is (hsv \, hsv \, hsv);
#X obj 87 33 t l b;
#X connect 0 0 16 0;
#X connect 2 0 1 0;
#X connect 3 0 1 0;
#X connect 5 0 1 0;
#X connect 7 0 1 0;
#X connect 8 0 14 1;
#X connect 9 0 8 0;
#X connect 10 0 2 0;
#X connect 10 1 5 0;
#X connect 10 3 7 0;
#X connect 10 4 3 0;
#X connect 11 0 10 0;
#X connect 12 0 11 0;
#X connect 12 1 11 1;
#X connect 12 2 11 2;
#X connect 14 0 11 3;
#X connect 16 0 12 0;
#X connect 16 1 14 0;
