#N canvas 242 138 880 517 10;
#X obj -63 -1539 inlet;
#X msg -26 -1461 sendtyped /leds/strip/0/all/hsv iiiiii \$1 \$2 \$3
\$4 \$5 \$6;
#X text -101 -1564 input is (hsv \, hsv \, hsv);
#X obj -67 -1385 outlet;
#X msg -146 -1478 ];
#X msg -109 -1474 [;
#X text -105 -1366 output is osc bundle;
#X obj -63 -1495 trigger b l b;
#X connect 0 0 7 0;
#X connect 1 0 3 0;
#X connect 4 0 3 0;
#X connect 5 0 3 0;
#X connect 7 0 4 0;
#X connect 7 1 1 0;
#X connect 7 2 5 0;
