#N canvas 254 150 880 517 10;
#X obj 87 33 inlet;
#X obj 26 572 outlet;
#X obj 252 221 random 256;
#X floatatom 87 58 5 0 0 0 - - -;
#X floatatom 252 253 5 0 0 0 - - -;
#X floatatom 124 234 5 0 0 0 - - -;
#X floatatom -82 184 5 0 0 0 - - -;
#X msg 124 202 255;
#X msg -53 479 ];
#X msg -18 479 [;
#X obj -82 155 min 255;
#X obj 30 462 trigger b l l b;
#X floatatom -102 257 5 0 0 0 - - -;
#X obj -55 262 int;
#X obj -55 287 change;
#X text 243 88 hue;
#X text 52 168 saturation;
#X text -191 203 decay over time;
#X obj -55 240 line 0 100;
#X msg -138 223 0 1200;
#X obj 233 164 random 256;
#X floatatom 233 191 5 0 0 0 - - -;
#X obj 272 292 random 256;
#X floatatom 272 319 5 0 0 0 - - -;
#X floatatom -55 316 5 0 0 0 - - -;
#X obj -82 130 * 3;
#X msg 87 526 sendtyped /leds/strip/1/all/hsv iiiiii \$1 \$2 \$3 \$4
\$5 \$6;
#X obj -82 206 t b f;
#X obj 30 390 pack f f f f f f f f f;
#X text -133 427 reorder to (hsv \, hsv \, hsv);
#X text -68 391 (vsh \, vsh \, vsh);
#X obj 87 90 trigger f b b;
#X msg 30 430 \$3 \$2 \$1 \$6 \$5 \$4 \$9 \$8 \$7;
#X obj -55 348 t f f f;
#X text 50 11 input is beat velocity;
#X obj -82 107 t f;
#X text -88 86 value;
#X obj 233 107 t b b b;
#X obj 124 170 t b;
#X msg 59 496 sendtyped /leds/strip/0/all/hsv iiiiii \$1 \$2 \$3 \$4
\$5 \$6;
#X text -12 591 output is osc bundle;
#X connect 0 0 3 0;
#X connect 2 0 4 0;
#X connect 3 0 31 0;
#X connect 4 0 28 5;
#X connect 5 0 28 1;
#X connect 5 0 28 4;
#X connect 5 0 28 7;
#X connect 6 0 27 0;
#X connect 7 0 5 0;
#X connect 8 0 1 0;
#X connect 9 0 1 0;
#X connect 10 0 6 0;
#X connect 11 0 8 0;
#X connect 11 1 39 0;
#X connect 11 2 26 0;
#X connect 11 3 9 0;
#X connect 13 0 14 0;
#X connect 14 0 24 0;
#X connect 18 0 12 0;
#X connect 18 0 13 0;
#X connect 19 0 18 0;
#X connect 20 0 21 0;
#X connect 21 0 28 2;
#X connect 22 0 23 0;
#X connect 23 0 28 8;
#X connect 24 0 33 0;
#X connect 25 0 10 0;
#X connect 26 0 1 0;
#X connect 27 0 19 0;
#X connect 27 1 18 0;
#X connect 28 0 32 0;
#X connect 31 0 35 0;
#X connect 31 1 38 0;
#X connect 31 2 37 0;
#X connect 32 0 11 0;
#X connect 33 0 28 0;
#X connect 33 1 28 3;
#X connect 33 2 28 6;
#X connect 35 0 25 0;
#X connect 37 0 20 0;
#X connect 37 1 2 0;
#X connect 37 2 22 0;
#X connect 38 0 7 0;
#X connect 39 0 1 0;
